<svg xmlns="http://www.w3.org/2000/svg" width="45.585" height="45.563" viewBox="0.688 0.709 45.585 45.563"><g data-name="g181" clip-path="url(&quot;#a&quot;)"><g data-name="g187"><path d="m13.491 5.853 8.655-4.798c.83-.46 1.838-.46 2.668 0L46.273 12.95H.688l9.964-5.524" stroke-linejoin="round" stroke-linecap="round" stroke-width="1.5" stroke="#000" fill="transparent" data-name="path189"/></g><g data-name="g191"><path d="M.688 12.95h45.584v2.064c0 1.14-.923 2.064-2.063 2.064H2.752a2.064 2.064 0 0 1-2.064-2.064v-2.063Z" stroke-linejoin="round" stroke-linecap="round" stroke-width="1.5" stroke="#000" fill="transparent" data-name="path193"/></g><g data-name="g195"><path d="M1.605 42.145h43.75c.507 0 .917.41.917.917v2.293c0 .507-.41.917-.917.917H1.605a.917.917 0 0 1-.917-.917v-2.293c0-.506.41-.917.917-.917Z" stroke-linejoin="round" stroke-linecap="round" stroke-width="1.5" stroke="#000" fill="transparent" data-name="path197"/></g><g data-name="g199"><path d="M30.675 29.612a7.194 7.194 0 1 1-14.39 0 7.194 7.194 0 0 1 14.39 0Z" stroke-linejoin="round" stroke-linecap="round" stroke-width="1.5" stroke="#000" fill="transparent" data-name="path201"/></g><g data-name="g203"><path d="M23.48 24.78v9.663" stroke-linejoin="round" stroke-linecap="round" stroke-width="1.5" stroke="#000" fill="transparent" data-name="path205"/></g><g data-name="g207"><path d="M21.39 31.963c0 .78.561 1.411 1.254 1.411h1.672c.693 0 1.255-.631 1.255-1.41v-.941c0-.78-.562-1.412-1.255-1.412h-1.672c-.693 0-1.254-.631-1.254-1.41v-.941c0-.78.561-1.411 1.254-1.411h1.672c.693 0 1.255.631 1.255 1.41" stroke-linejoin="round" stroke-linecap="round" stroke-width="1.5" stroke="#000" fill="transparent" data-name="path209"/></g><g data-name="g211"><path d="M25.957 7.337a2.476 2.476 0 1 1-4.953 0 2.476 2.476 0 0 1 4.953 0Z" stroke-linejoin="round" stroke-linecap="round" stroke-width="1.5" stroke="#000" fill="transparent" data-name="path213"/></g><g data-name="g215"><path d="M43.52 42.145H32.493l2.751-3.873h5.526l2.752 3.873Z" stroke-linejoin="round" stroke-linecap="round" stroke-width="1.5" stroke="#000" fill="transparent" data-name="path217"/></g><g data-name="g219"><path d="M43.52 17.078H32.493l2.751 3.873h5.526l2.752-3.873Z" stroke-linejoin="round" stroke-linecap="round" stroke-width="1.5" stroke="#000" fill="transparent" data-name="path221"/></g><g data-name="g223"><path d="M35.243 29.514v-8.563h5.526v17.321h-5.526v-5.547" stroke-linejoin="round" stroke-linecap="round" stroke-width="1.5" stroke="#000" fill="transparent" data-name="path225"/></g><g data-name="g227"><path d="M14.469 42.145H3.439l2.752-3.873h5.526l2.752 3.873Z" stroke-linejoin="round" stroke-linecap="round" stroke-width="1.5" stroke="#000" fill="transparent" data-name="path229"/></g><g data-name="g231"><path d="M14.469 17.078H3.439l2.752 3.873h5.526l2.752-3.873Z" stroke-linejoin="round" stroke-linecap="round" stroke-width="1.5" stroke="#000" fill="transparent" data-name="path233"/></g><path d="M11.717 38.272H6.191V20.951h5.526v17.321Z" stroke-linejoin="round" stroke-linecap="round" stroke-width="1.5" stroke="#000" fill="transparent" data-name="path235"/></g><defs><clipPath id="a"><path d="M0-682.665h46.96v46.96H0v-46.96Z" data-name="path183" transform="translate(0 682.665)"/></clipPath></defs></svg>