<svg xmlns="http://www.w3.org/2000/svg" width="50" height="49.998" viewBox="1059.5 2208.062 50 49.998"><g data-name="key"><g data-name="Group 3"><g data-name="Group 2"><path d="M1079.582 2225.555a37.578 37.578 0 0 0-.082 2.506c0 4.174 1.245 6.667 3.333 6.667 2.63 0 3.333-3.143 3.333-5a.832.832 0 1 0-1.666 0c0 .033-.072 3.333-1.667 3.333-.966 0-1.667-2.103-1.667-5 0-9.715 3.41-10.822 3.517-10.853a.833.833 0 0 0-.348-1.63c-.166.033-.77.192-1.496.814 0-.143.012-.286.05-.429.116-.43.391-.789.777-1.012a1.656 1.656 0 0 1 1.264-.166 1.668 1.668 0 0 1 .402 3.053.833.833 0 0 0 .834 1.444 3.34 3.34 0 0 0 1.22-4.553 3.313 3.313 0 0 0-2.024-1.554 3.311 3.311 0 0 0-2.53.333 3.31 3.31 0 0 0-1.552 2.025c-.216.805-.115 1.64.278 2.401-.715 1.164-1.383 2.896-1.755 5.472-1.248-1.494-1.97-3.397-1.97-5.344 0-4.595 3.738-8.333 8.333-8.333 4.594 0 8.333 3.738 8.333 8.333a8.343 8.343 0 0 1-10.978 7.906.834.834 0 0 0-.527 1.58c1.02.34 2.087.514 3.172.514 5.514 0 10-4.487 10-10 0-5.514-4.486-10-10-10s-10 4.486-10 10c0 2.841 1.276 5.602 3.416 7.493Z" fill-rule="evenodd" data-name="Path 1"/><path d="M1070.333 2239.728H1077c.971 0 2.625 1.24 4.083 2.333 1.828 1.372 3.555 2.667 5.083 2.667h5c1.265 0 1.894.574 1.91.589a.831.831 0 0 0 1.18 0 .834.834 0 0 0 0-1.178c-.11-.111-1.135-1.078-3.09-1.078h-5c-.972 0-2.625-1.24-4.083-2.333-1.828-1.372-3.556-2.667-5.083-2.667h-6.667a.833.833 0 1 0 0 1.667Z" fill-rule="evenodd" data-name="Path 2"/><path d="m1096.088 2224.996 8.411 8.41v2.989h-2.988l-.345-.345v-2.155a.832.832 0 0 0-.834-.833h-.833v-.834a.832.832 0 0 0-.833-.833h-2.154l-.346-.346v-2.154a.832.832 0 0 0-.833-.833h-2.155l-.081-.081a.832.832 0 1 0-1.178 1.178l.325.325a.833.833 0 0 0 .589.244h1.666v1.665c0 .221.088.433.244.59l.833.834a.832.832 0 0 0 .59.245h1.667v.833c0 .46.372.833.833.833h.833v1.667c0 .22.088.432.244.589l.834.833a.833.833 0 0 0 .589.244h4.166c.461 0 .834-.373.834-.833v-4.166a.835.835 0 0 0-.245-.59l-8.654-8.654a.832.832 0 1 0-1.179 1.178Z" fill-rule="evenodd" data-name="Path 3"/><path d="M1063.667 2252.644c0-.689-.561-1.25-1.25-1.25-.69 0-1.25.561-1.25 1.25 0 .69.56 1.25 1.25 1.25.689 0 1.25-.56 1.25-1.25Z" fill-rule="evenodd" data-name="Path 4"/><path d="M1065.333 2234.728h-5a.833.833 0 1 0 0 1.667h5c.46 0 .834.373.834.833v18.333c0 .459-.374.833-.834.833h-5a.833.833 0 1 0 0 1.666h5c1.379 0 2.5-1.121 2.5-2.5v-18.332c0-1.38-1.121-2.5-2.5-2.5Z" fill-rule="evenodd" data-name="Path 5"/><path d="M1109.052 2243.061c-.919-1.592-2.965-2.137-4.501-1.247l-9.59 4.668c-1.492.746-2.997.746-6.295.746-3.224 0-8.147-.814-8.196-.823a.834.834 0 0 0-.274 1.644c.207.035 5.107.845 8.47.845 3.46 0 5.197 0 7.03-.917l9.636-4.692a1.656 1.656 0 0 1 1.264-.167c.43.115.79.39 1.012.777a1.67 1.67 0 0 1-.633 2.29l-11.267 7.013c-.023.015-2.427 1.53-7.875 1.53-4.724 0-12.022-4.022-12.127-4.08-.075-.037-1.883-.92-5.373-.92a.833.833 0 1 0 0 1.666c3.031 0 4.593.729 4.595.729.315.175 7.748 4.271 12.905 4.271 6.015 0 8.685-1.733 8.773-1.792l11.226-6.988a3.31 3.31 0 0 0 1.553-2.024 3.31 3.31 0 0 0-.333-2.529Z" fill-rule="evenodd" data-name="Path 6"/></g></g></g></svg>