<svg xmlns="http://www.w3.org/2000/svg" width="77.75" height="62.2" viewBox="1016.232 1778.961 77.75 62.2"><path d="M1043.445 1810.061c8.589 0 15.55-6.96 15.55-15.55 0-8.589-6.961-15.55-15.55-15.55s-15.55 6.961-15.55 15.55c0 8.59 6.961 15.55 15.55 15.55Zm10.885 3.888h-2.029a21.17 21.17 0 0 1-8.856 1.944c-3.159 0-6.147-.705-8.856-1.944h-2.029c-9.014 0-16.328 7.313-16.328 16.327v5.054a5.833 5.833 0 0 0 5.832 5.831h42.762a5.833 5.833 0 0 0 5.831-5.831v-5.054c0-9.014-7.313-16.327-16.327-16.327Zm39.24-15.599-3.378-3.414a1.44 1.44 0 0 0-2.04-.012l-12.732 12.635-5.528-5.564a1.44 1.44 0 0 0-2.04-.012l-3.415 3.389a1.44 1.44 0 0 0-.012 2.04l9.926 10a1.44 1.44 0 0 0 2.04.011l17.166-17.032c.559-.57.571-1.482.012-2.04Z" fill="#fff" fill-rule="evenodd" data-name="Icon awesome-user-check"/></svg>