<svg xmlns="http://www.w3.org/2000/svg" width="55.125" height="55.137" viewBox="1015 1458.561 55.125 55.137"><path d="M1070.125 1463.877v44.506c0 2.99-2.338 5.315-5.316 5.315h-44.493c-2.941-.012-5.316-2.3-5.316-5.328v-44.493c0-2.966 2.313-5.316 5.316-5.316h44.505c2.953 0 5.304 2.314 5.304 5.316Zm-4.59 44.493v-44.493a.73.73 0 0 0-.714-.714h-1.144l-13.572 9.18-7.543-6.14-7.53 6.14-13.572-9.192h-1.144a.73.73 0 0 0-.714.714v44.505c0 .37.32.714.714.714h44.505c.394.012.714-.332.714-.714Zm-32.054-30.86v4.553h-9.043v-4.553h9.043Zm0 9.155v4.59h-9.043v-4.59h9.043Zm1.366-18.125 6.645-5.377h-14.581l7.936 5.377Zm25.84 8.97v4.553h-24.117v-4.553h24.117Zm0 9.155v4.59h-24.117v-4.59h24.117Zm-10.41-18.125 7.937-5.377h-14.569l6.632 5.377Zm10.41 27.304v4.59h-12.23v-4.59h12.23Z" fill="#fff" fill-rule="evenodd" data-name="Icon awesome-wpforms"/></svg>