<svg xmlns="http://www.w3.org/2000/svg" width="24.256" height="24.25" viewBox="1744.128 49 24.256 24.25"><path d="M1756.253 49H1756.212a12.068 12.068 0 0 0-8.546 3.562 12.062 12.062 0 0 0-3.538 8.563c0 3.235 1.26 6.272 3.544 8.563a12.058 12.058 0 0 0 8.546 3.562h.04c6.687 0 12.126-5.439 12.126-12.125S1762.939 49 1756.253 49Zm10.504 11.309h-4.523a22.956 22.956 0 0 0-.571-4.442c.996-.32 1.964-.729 2.897-1.224a10.444 10.444 0 0 1 2.197 5.666Zm-11.32 0h-3.603a20.72 20.72 0 0 1 .513-4.028c1.015.227 2.046.367 3.09.414v3.614Zm0 1.632v3.608a17.81 17.81 0 0 0-3.09.414 20.717 20.717 0 0 1-.513-4.022h3.603Zm1.632 0h3.573a20.598 20.598 0 0 1-.513 4.017 17.4 17.4 0 0 0-3.06-.409v-3.608Zm0-1.632v-3.614a17.81 17.81 0 0 0 3.06-.408c.292 1.247.467 2.594.513 4.022h-3.573Zm6.377-6.873c-.717.356-1.457.659-2.215.904-.414-1.248-.938-2.326-1.545-3.177a10.549 10.549 0 0 1 3.76 2.273Zm-3.754 1.323c-.857.187-1.737.303-2.623.35V50.83c.991.537 1.959 1.977 2.623 3.93Zm-4.255-3.952v4.296a16.123 16.123 0 0 1-2.653-.355c.677-1.97 1.656-3.41 2.653-3.94Zm-2.658.373c-.6.845-1.12 1.918-1.533 3.154a16.558 16.558 0 0 1-2.186-.898 10.39 10.39 0 0 1 3.719-2.256Zm-4.833 3.469c.921.49 1.883.897 2.868 1.212a22.031 22.031 0 0 0-.571 4.442h-4.489a10.39 10.39 0 0 1 2.192-5.654Zm-2.198 7.292h4.49c.052 1.557.244 3.049.57 4.442-.985.32-1.947.729-2.868 1.213a10.445 10.445 0 0 1-2.192-5.655Zm3.306 6.873c.705-.35 1.44-.653 2.192-.898.413 1.242.932 2.309 1.533 3.16a10.65 10.65 0 0 1-3.725-2.262Zm3.73-1.318c.87-.192 1.76-.308 2.653-.355v4.302c-1.003-.53-1.976-1.976-2.653-3.947Zm4.285 3.924v-4.285c.886.047 1.766.163 2.623.35-.664 1.958-1.632 3.398-2.623 3.935Zm2.623-.333c.606-.85 1.131-1.93 1.545-3.177.758.245 1.504.554 2.215.91a10.67 10.67 0 0 1-3.76 2.267Zm4.868-3.486c-.933-.495-1.9-.903-2.897-1.224.326-1.393.518-2.88.57-4.436h4.524a10.398 10.398 0 0 1-2.197 5.66Z" fill-rule="evenodd" data-name="Icon ionic-ios-globe"/></svg>